<svg width="708" height="512" viewBox="0 0 708 512" fill="none" xmlns="http://www.w3.org/2000/svg">
<g clip-path="url(#clip0_1400_111)">
<path d="M40.5707 0H666.769C677.93 0 688.073 4.57054 695.418 11.9099C702.769 19.2607 707.334 29.4207 707.334 40.5707V470.909C707.334 479.319 704.738 487.154 700.305 493.653C699.494 495.754 698.227 497.711 696.495 499.374C695.338 500.462 694.065 501.355 692.719 502.028C685.667 507.905 676.607 511.486 666.769 511.486H40.5707C29.4207 511.486 19.2665 506.921 11.9099 499.57C4.57054 492.225 0 482.082 0 470.909V40.5707C0 29.3976 4.55903 19.2492 11.9041 11.9099C19.2492 4.55903 29.3977 0 40.5707 0ZM31.1188 453.842L250.574 233.834L31.1188 54.904V453.842ZM274.745 253.538L48.4914 480.361H656.943L440.723 253.573L369.442 314.308C363.853 319.086 355.483 319.356 349.566 314.555L274.745 253.538ZM464.387 233.414L676.215 455.597V52.9469L464.387 233.414ZM51.0415 31.1188L359.127 282.32L653.984 31.1188H51.0415Z" fill="#327C8E"/>
</g>
<defs>
<clipPath id="clip0_1400_111">
<rect width="707.334" height="511.48" fill="white"/>
</clipPath>
</defs>
</svg>
