<svg width="385" height="512" viewBox="0 0 385 512" fill="none" xmlns="http://www.w3.org/2000/svg">
<g clip-path="url(#clip0_1386_18)">
<path d="M197.682 486.399C223.948 469.707 247.55 449.477 268.113 426.916C312.777 378.005 342.915 318.23 354.986 259.579C366.974 201.678 361.313 144.942 334.798 101.151C327.263 88.58 317.814 77.0912 306.575 66.768C274.357 37.4217 237.476 23.4353 200.346 23.0607C161.342 22.7693 121.797 37.4217 86.8317 65.2694C71.9296 77.1745 59.6499 90.8694 50.1176 105.98C25.5582 144.609 18.1072 192.562 26.2243 242.721C34.4246 293.63 58.6093 346.869 97.1549 395.114C123.962 428.747 157.679 459.967 197.807 486.316L197.682 486.399ZM192.021 88.0805C221.367 88.0805 248.007 99.9855 267.197 119.258C286.47 138.531 298.375 165.047 298.375 194.435C298.375 223.781 286.47 250.422 267.197 269.611C247.924 288.884 221.408 300.789 192.021 300.789C162.674 300.789 136.034 288.884 116.844 269.611C97.5712 250.339 85.6661 223.823 85.6661 194.435C85.6661 165.089 97.5712 138.448 116.844 119.258C136.117 99.9855 162.633 88.0805 192.021 88.0805ZM251.879 134.577C236.602 119.3 215.331 109.726 192.021 109.726C168.585 109.726 147.439 119.175 132.162 134.577C116.886 149.853 107.312 171.124 107.312 194.435C107.312 217.87 116.761 239.016 132.162 254.293C147.439 269.57 168.71 279.144 192.021 279.144C215.456 279.144 236.602 269.695 251.879 254.293C267.155 239.016 276.729 217.745 276.729 194.435C276.688 170.999 267.28 149.853 251.879 134.577ZM285.221 442.359C261.911 467.834 234.895 490.687 204.383 509.21C200.72 511.958 195.517 512.332 191.355 509.668C146.398 481.071 108.727 446.688 79.006 409.391C38.0877 358.067 12.2379 301.122 3.45484 246.259C-5.49474 190.647 2.87208 137.199 30.5534 93.5751C41.501 76.3836 55.4041 60.7322 72.4707 47.2038C111.474 16.1508 156.139 -0.291481 200.512 -9.94881e-05C243.304 0.374534 285.512 16.234 322.143 49.6597C335.006 61.3566 345.745 74.5936 354.528 89.1211C384.291 138.115 390.701 200.72 377.672 263.992C364.727 326.597 332.716 390.243 285.346 442.151L285.221 442.359Z" fill="#327C8E"/>
</g>
<defs>
<clipPath id="clip0_1386_18">
<rect width="384.041" height="511.5" fill="white"/>
</clipPath>
</defs>
</svg>
