<svg width="502" height="512" viewBox="0 0 502 512" fill="none" xmlns="http://www.w3.org/2000/svg">
<g clip-path="url(#clip0_1384_7)">
<path d="M145.23 241.931C176.54 297.891 213.34 337.571 270.77 367.481C275.75 363.001 278.41 359.311 282.53 353.971C298.82 332.521 319.11 306.771 352.34 322.291C374.02 333.261 416.63 356.321 434.65 369.681C441.51 374.501 446.47 380.581 449.81 387.491C456.9 402.201 455.98 419.071 451.48 434.341C449.16 442.201 445.78 449.991 441.77 457.051C426.72 483.491 401.73 497.281 372.9 504.771C337.85 513.841 306.18 514.091 271.34 503.351C245.05 495.221 220.62 482.081 197.29 467.681L194.28 465.821C182.96 458.771 170.8 451.191 158.35 441.931L158.26 441.851C134.27 423.791 110.12 401.571 88.2197 376.711C67.9397 353.691 49.4597 328.251 34.7097 301.581C21.1897 277.131 10.8297 251.451 5.05972 225.451C-3.15028 188.421 -2.54028 145.791 15.6797 111.631C37.0097 71.6508 75.7197 55.3108 119.06 59.1308L120.13 59.2608C127.62 60.2008 134.43 64.7708 138.12 71.3708L187.43 154.721C192.25 161.241 195.05 167.951 195.99 174.841C199.58 201.311 177.88 217.591 159.31 231.201C152.98 235.801 145.91 240.931 145.23 241.931ZM238.1 189.731C230.7 187.821 226.25 180.251 228.16 172.851C230.07 165.441 237.64 160.991 245.04 162.911C289.14 174.411 329.22 210.721 342.92 254.461C345.19 261.771 341.12 269.561 333.8 271.831C326.49 274.111 318.7 270.031 316.43 262.711C305.61 228.171 272.88 198.781 238.1 189.731ZM239.94 104.781C232.39 103.501 227.31 96.3208 228.59 88.7708C229.87 81.2208 237.05 76.1308 244.6 77.4208C329.95 92.2008 405.39 164.001 426.66 247.631C428.55 255.061 424.05 262.631 416.62 264.521C409.18 266.411 401.61 261.911 399.73 254.471C381.1 181.211 314.75 117.751 239.94 104.781ZM248.86 27.6708C241.25 26.8008 235.78 19.9108 236.65 12.3008C237.52 4.70081 244.4 -0.779194 252.01 0.0908063C370.7 13.9808 474.74 108.991 500.68 225.421C502.33 232.891 497.61 240.281 490.15 241.931C482.69 243.581 475.29 238.861 473.65 231.401C450.25 126.421 355.89 40.1908 248.86 27.6708ZM119.56 255.001C119.09 254.231 118.68 253.421 118.34 252.561C109.99 231.381 127.12 218.941 142.41 207.861C149.76 202.561 162.56 193.901 166.36 185.111C168.59 180.001 167.51 176.191 164.28 171.841L162.98 169.991L114.31 87.7108C83.2797 85.5408 56.4497 96.3408 41.0597 125.161C26.2197 152.971 26.4797 189.241 33.1297 219.241C38.2297 242.251 47.6297 265.371 59.9797 287.711C87.5097 337.511 130.25 384.661 175.61 418.871C186.65 427.101 198.48 434.491 209.5 441.351L212.57 443.271C252.32 467.971 295.23 488.361 343.8 481.191C351.22 480.101 358.66 478.721 365.67 476.911C393.39 469.701 415 456.281 423.85 426.221C427 415.521 428.51 400.761 418.26 393.351C395.84 378.711 363.81 360.891 339.91 348.241C327.58 342.751 315.4 358.191 305.46 371.281C298.3 380.641 290.6 391.331 279.18 395.611C273.58 397.711 267.78 397.651 262.26 395.381L260.4 394.591C196.02 361.761 154.37 317.521 119.56 255.001Z" fill="#327C8E"/>
</g>
<defs>
<clipPath id="clip0_1384_7">
<rect width="501.01" height="511.5" fill="white"/>
</clipPath>
</defs>
</svg>
